<svg  viewBox="0 0 54 48" version="1.1" xmlns="http://www.w3.org/2000/svg" xmlns:xlink="http://www.w3.org/1999/xlink">
    <g id="Page-1" stroke="none" stroke-width="1" fill="none" fill-rule="evenodd">
        <g id="Question" transform="translate(-574.000000, -176.000000)">
            <g id="audio" transform="translate(540.000000, 140.000000)">
                <g id="Group-3" transform="translate(34.000000, 36.000000)">
                    <path d="M2.99109042,12 C1.34177063,12 0,13.3391568 0,14.9910904 L0,33.0089096 C0,34.6582294 1.33915679,36 2.99109042,36 L12,36 L25,48 L25,0 L12,12 L2.99109042,12 Z" id="Combined-Shape" stroke="#FFFFFF" stroke-width="2"></path>
                    <rect id="Rectangle-70" fill="#FFFFFF" x="10" y="18" width="2" height="12"></rect>
                    <path d="M31,36 L31,36 C37.627417,36 43,30.627417 43,24 C43,17.372583 37.627417,12 31,12" id="Oval-11" stroke="#FFFFFF" stroke-width="2"></path>
                    <path d="M31,46 L31,46 C43.1502645,46 53,36.1502645 53,24 C53,11.8497355 43.1502645,2 31,2" id="Oval-11-Copy" stroke="#FFFFFF" stroke-width="2"></path>
                </g>
            </g>
        </g>
    </g>
</svg>